# xmcd
#
# Track frame offsets:
#	150
#	22209
#	43859
#	62199
#	80823
#	99592
#	125934
#	144172
#	168622
#	192302
#	210001
#	229997
#
# Disc length: 3337 seconds
#
# Revision: 2
# Processed by: cddbd v1.5.2PL0 Copyright (c) Steve Scherf et al.
# Submitted via: audiograbber 1.83.01
#
DISCID=b20d070c
DTITLE=Corinne Bailey Rae - The Heart Speaks In Whispers
DYEAR=2016
DGENRE=Soul
TTITLE0=The Skies Will Break
TTITLE1=Hey, I Won't Break Your Heart
TTITLE2=Been To The Moon
TTITLE3=Tell Me
TTITLE4=Stop Where You Are
TTITLE5=Green Aphrodisiac
TTITLE6=Horse Print Dress
TTITLE7=Do You Ever Think Of Me?
TTITLE8=Caramel
TTITLE9=Taken By Dreams
TTITLE10=Walk On
TTITLE11=Night
EXTD=YEAR: 2016
EXTT0=
EXTT1=
EXTT2=
EXTT3=
EXTT4=
EXTT5=
EXTT6=
EXTT7=
EXTT8=
EXTT9=
EXTT10=
EXTT11=
PLAYORDER=
